  0
SECTION
  2
HEADER
  9
$ACADVER
  1
AC1009
  9
$FILLMODE
 70
 0
  9
$SPLFRAME
 70
 1
  9
$EXTMIN
 10
0
 20
0
 30
0.0
  9
$EXTMAX
 10
1058.33
 20
1058.33
 30
0.0
  0
ENDSEC
  0
SECTION
  2
TABLES
  0
TABLE
  2
LAYER
 70
1
  0
LAYER
  2
0
 70
     0
 62
     7
  6
CONTINUOUS
  0
ENDTAB
  0
ENDSEC
  0
SECTION
  2
ENTITIES
  0
LINE
  8
0
 62
     0
 10
0.0950846
 20
129.021
 30
0.0
 11
204.883
 21
129.021
 31
0.0
  0
LINE
  8
0
 62
     0
 10
204.883
 20
129.021
 30
0.0
 11
204.883
 21
0.434082
 31
0.0
  0
LINE
  8
0
 62
     0
 10
204.883
 20
0.434082
 30
0.0
 11
0.0950846
 21
0.434082
 31
0.0
  0
LINE
  8
0
 62
     0
 10
0.0950846
 20
0.434082
 30
0.0
 11
0.0950846
 21
129.021
 31
0.0
  0
LINE
  8
0
 62
     0
 10
145.495
 20
16.9595
 30
0.0
 11
159.494
 21
16.9595
 31
0.0
  0
LINE
  8
0
 62
     0
 10
159.494
 20
16.9595
 30
0.0
 11
159.494
 21
2.96003
 31
0.0
  0
LINE
  8
0
 62
     0
 10
159.494
 20
2.96003
 30
0.0
 11
145.495
 21
2.96003
 31
0.0
  0
LINE
  8
0
 62
     0
 10
145.495
 20
2.96003
 30
0.0
 11
145.495
 21
16.9595
 31
0.0
  0
LINE
  8
0
 62
     0
 10
164.545
 20
16.9595
 30
0.0
 11
178.544
 21
16.9595
 31
0.0
  0
LINE
  8
0
 62
     0
 10
178.544
 20
16.9595
 30
0.0
 11
178.544
 21
2.96003
 31
0.0
  0
LINE
  8
0
 62
     0
 10
178.544
 20
2.96003
 30
0.0
 11
164.545
 21
2.96003
 31
0.0
  0
LINE
  8
0
 62
     0
 10
164.545
 20
2.96003
 30
0.0
 11
164.545
 21
16.9595
 31
0.0
  0
LINE
  8
0
 62
     0
 10
183.595
 20
16.9595
 30
0.0
 11
197.594
 21
16.9595
 31
0.0
  0
LINE
  8
0
 62
     0
 10
197.594
 20
16.9595
 30
0.0
 11
197.594
 21
2.96003
 31
0.0
  0
LINE
  8
0
 62
     0
 10
197.594
 20
2.96003
 30
0.0
 11
183.595
 21
2.96003
 31
0.0
  0
LINE
  8
0
 62
     0
 10
183.595
 20
2.96003
 30
0.0
 11
183.595
 21
16.9595
 31
0.0
  0
LINE
  8
0
 62
     0
 10
33.5759
 20
21.722
 30
0.0
 11
33.5759
 21
17.0215
 31
0.0
  0
LINE
  8
0
 62
     0
 10
33.5759
 20
17.0215
 30
0.0
 11
32.0504
 21
17.0215
 31
0.0
  0
LINE
  8
0
 62
     0
 10
32.0504
 20
17.0215
 30
0.0
 11
32.0504
 21
20.2517
 31
0.0
  0
LINE
  8
0
 62
     0
 10
32.0504
 20
20.2517
 30
0.0
 11
30.3251
 21
20.2517
 31
0.0
  0
LINE
  8
0
 62
     0
 10
30.3251
 20
20.2517
 30
0.0
 11
30.3251
 21
21.1722
 31
0.0
  0
LINE
  8
0
 62
     0
 10
30.3251
 20
21.1722
 30
0.0
 11
27.0261
 21
21.1722
 31
0.0
  0
LINE
  8
0
 62
     0
 10
27.0261
 20
21.1722
 30
0.0
 11
27.0261
 21
20.2517
 31
0.0
  0
LINE
  8
0
 62
     0
 10
27.0261
 20
20.2517
 30
0.0
 11
25.3008
 21
20.2517
 31
0.0
  0
LINE
  8
0
 62
     0
 10
25.3008
 20
20.2517
 30
0.0
 11
25.3008
 21
17.0215
 31
0.0
  0
LINE
  8
0
 62
     0
 10
25.3008
 20
17.0215
 30
0.0
 11
24.4753
 21
17.0215
 31
0.0
  0
LINE
  8
0
 62
     0
 10
24.4753
 20
17.0215
 30
0.0
 11
24.4753
 21
14.2227
 31
0.0
  0
LINE
  8
0
 62
     0
 10
24.4753
 20
14.2227
 30
0.0
 11
25.3008
 21
14.2227
 31
0.0
  0
LINE
  8
0
 62
     0
 10
25.3008
 20
14.2227
 30
0.0
 11
25.3008
 21
7.95267
 31
0.0
  0
LINE
  8
0
 62
     0
 10
25.3008
 20
7.95267
 30
0.0
 11
27.0261
 21
7.95267
 31
0.0
  0
LINE
  8
0
 62
     0
 10
27.0261
 20
7.95267
 30
0.0
 11
27.0261
 21
6.97286
 31
0.0
  0
LINE
  8
0
 62
     0
 10
27.0261
 20
6.97286
 30
0.0
 11
30.3251
 21
6.97286
 31
0.0
  0
LINE
  8
0
 62
     0
 10
30.3251
 20
6.97286
 30
0.0
 11
30.3251
 21
7.95267
 31
0.0
  0
LINE
  8
0
 62
     0
 10
30.3251
 20
7.95267
 30
0.0
 11
32.0504
 21
7.95267
 31
0.0
  0
LINE
  8
0
 62
     0
 10
32.0504
 20
7.95267
 30
0.0
 11
32.0504
 21
12.4216
 31
0.0
  0
LINE
  8
0
 62
     0
 10
32.0504
 20
12.4216
 30
0.0
 11
33.5759
 21
12.4216
 31
0.0
  0
LINE
  8
0
 62
     0
 10
33.5759
 20
12.4216
 30
0.0
 11
33.5759
 21
7.72252
 31
0.0
  0
LINE
  8
0
 62
     0
 10
33.5759
 20
7.72252
 30
0.0
 11
47.5753
 21
7.72252
 31
0.0
  0
LINE
  8
0
 62
     0
 10
47.5753
 20
7.72252
 30
0.0
 11
47.5753
 21
12.4216
 31
0.0
  0
LINE
  8
0
 62
     0
 10
47.5753
 20
12.4216
 30
0.0
 11
49.101
 21
12.4216
 31
0.0
  0
LINE
  8
0
 62
     0
 10
49.101
 20
12.4216
 30
0.0
 11
49.101
 21
7.95267
 31
0.0
  0
LINE
  8
0
 62
     0
 10
49.101
 20
7.95267
 30
0.0
 11
50.8247
 21
7.95267
 31
0.0
  0
LINE
  8
0
 62
     0
 10
50.8247
 20
7.95267
 30
0.0
 11
50.8247
 21
6.97286
 31
0.0
  0
LINE
  8
0
 62
     0
 10
50.8247
 20
6.97286
 30
0.0
 11
54.1253
 21
6.97286
 31
0.0
  0
LINE
  8
0
 62
     0
 10
54.1253
 20
6.97286
 30
0.0
 11
54.1253
 21
7.95267
 31
0.0
  0
LINE
  8
0
 62
     0
 10
54.1253
 20
7.95267
 30
0.0
 11
55.8504
 21
7.95267
 31
0.0
  0
LINE
  8
0
 62
     0
 10
55.8504
 20
7.95267
 30
0.0
 11
55.8504
 21
14.2227
 31
0.0
  0
LINE
  8
0
 62
     0
 10
55.8504
 20
14.2227
 30
0.0
 11
56.6759
 21
14.2227
 31
0.0
  0
LINE
  8
0
 62
     0
 10
56.6759
 20
14.2227
 30
0.0
 11
56.6759
 21
17.0215
 31
0.0
  0
LINE
  8
0
 62
     0
 10
56.6759
 20
17.0215
 30
0.0
 11
55.8504
 21
17.0215
 31
0.0
  0
LINE
  8
0
 62
     0
 10
55.8504
 20
17.0215
 30
0.0
 11
55.8504
 21
20.2517
 31
0.0
  0
LINE
  8
0
 62
     0
 10
55.8504
 20
20.2517
 30
0.0
 11
54.1253
 21
20.2517
 31
0.0
  0
LINE
  8
0
 62
     0
 10
54.1253
 20
20.2517
 30
0.0
 11
54.1253
 21
21.1722
 31
0.0
  0
LINE
  8
0
 62
     0
 10
54.1253
 20
21.1722
 30
0.0
 11
50.8247
 21
21.1722
 31
0.0
  0
LINE
  8
0
 62
     0
 10
50.8247
 20
21.1722
 30
0.0
 11
50.8247
 21
20.2517
 31
0.0
  0
LINE
  8
0
 62
     0
 10
50.8247
 20
20.2517
 30
0.0
 11
49.101
 21
20.2517
 31
0.0
  0
LINE
  8
0
 62
     0
 10
49.101
 20
20.2517
 30
0.0
 11
49.101
 21
17.0215
 31
0.0
  0
LINE
  8
0
 62
     0
 10
49.101
 20
17.0215
 30
0.0
 11
47.5753
 21
17.0215
 31
0.0
  0
LINE
  8
0
 62
     0
 10
47.5753
 20
17.0215
 30
0.0
 11
47.5753
 21
21.722
 31
0.0
  0
LINE
  8
0
 62
     0
 10
47.5753
 20
21.722
 30
0.0
 11
33.5759
 21
21.722
 31
0.0
  0
LINE
  8
0
 62
     0
 10
71.676
 20
21.722
 30
0.0
 11
85.6753
 21
21.722
 31
0.0
  0
LINE
  8
0
 62
     0
 10
85.6753
 20
21.722
 30
0.0
 11
85.6753
 21
7.72252
 31
0.0
  0
LINE
  8
0
 62
     0
 10
85.6753
 20
7.72252
 30
0.0
 11
71.676
 21
7.72252
 31
0.0
  0
LINE
  8
0
 62
     0
 10
71.676
 20
7.72252
 30
0.0
 11
71.676
 21
21.722
 31
0.0
  0
LINE
  8
0
 62
     0
 10
95.4871
 20
21.722
 30
0.0
 11
109.488
 21
21.722
 31
0.0
  0
LINE
  8
0
 62
     0
 10
109.488
 20
21.722
 30
0.0
 11
109.488
 21
7.72252
 31
0.0
  0
LINE
  8
0
 62
     0
 10
109.488
 20
7.72252
 30
0.0
 11
95.4871
 21
7.72252
 31
0.0
  0
LINE
  8
0
 62
     0
 10
95.4871
 20
7.72252
 30
0.0
 11
95.4871
 21
21.722
 31
0.0
  0
LINE
  8
0
 62
     0
 10
119.301
 20
21.722
 30
0.0
 11
133.3
 21
21.722
 31
0.0
  0
LINE
  8
0
 62
     0
 10
133.3
 20
21.722
 30
0.0
 11
133.3
 21
7.72252
 31
0.0
  0
LINE
  8
0
 62
     0
 10
133.3
 20
7.72252
 30
0.0
 11
119.301
 21
7.72252
 31
0.0
  0
LINE
  8
0
 62
     0
 10
119.301
 20
7.72252
 30
0.0
 11
119.301
 21
21.722
 31
0.0
  0
LINE
  8
0
 62
     0
 10
164.545
 20
36.0094
 30
0.0
 11
178.544
 21
36.0094
 31
0.0
  0
LINE
  8
0
 62
     0
 10
178.544
 20
36.0094
 30
0.0
 11
178.544
 21
22.01
 31
0.0
  0
LINE
  8
0
 62
     0
 10
178.544
 20
22.01
 30
0.0
 11
164.545
 21
22.01
 31
0.0
  0
LINE
  8
0
 62
     0
 10
164.545
 20
22.01
 30
0.0
 11
164.545
 21
36.0094
 31
0.0
  0
LINE
  8
0
 62
     0
 10
26.4322
 20
40.7719
 30
0.0
 11
40.4315
 21
40.7719
 31
0.0
  0
LINE
  8
0
 62
     0
 10
40.4315
 20
40.7719
 30
0.0
 11
40.4315
 21
26.7725
 31
0.0
  0
LINE
  8
0
 62
     0
 10
40.4315
 20
26.7725
 30
0.0
 11
26.4322
 21
26.7725
 31
0.0
  0
LINE
  8
0
 62
     0
 10
26.4322
 20
26.7725
 30
0.0
 11
26.4322
 21
40.7719
 31
0.0
  0
LINE
  8
0
 62
     0
 10
45.4822
 20
40.7719
 30
0.0
 11
59.4815
 21
40.7719
 31
0.0
  0
LINE
  8
0
 62
     0
 10
59.4815
 20
40.7719
 30
0.0
 11
59.4815
 21
26.7725
 31
0.0
  0
LINE
  8
0
 62
     0
 10
59.4815
 20
26.7725
 30
0.0
 11
45.4822
 21
26.7725
 31
0.0
  0
LINE
  8
0
 62
     0
 10
45.4822
 20
26.7725
 30
0.0
 11
45.4822
 21
40.7719
 31
0.0
  0
LINE
  8
0
 62
     0
 10
64.5322
 20
40.7719
 30
0.0
 11
78.5315
 21
40.7719
 31
0.0
  0
LINE
  8
0
 62
     0
 10
78.5315
 20
40.7719
 30
0.0
 11
78.5315
 21
26.7725
 31
0.0
  0
LINE
  8
0
 62
     0
 10
78.5315
 20
26.7725
 30
0.0
 11
64.5322
 21
26.7725
 31
0.0
  0
LINE
  8
0
 62
     0
 10
64.5322
 20
26.7725
 30
0.0
 11
64.5322
 21
40.7719
 31
0.0
  0
LINE
  8
0
 62
     0
 10
83.5822
 20
40.7719
 30
0.0
 11
97.5815
 21
40.7719
 31
0.0
  0
LINE
  8
0
 62
     0
 10
97.5815
 20
40.7719
 30
0.0
 11
97.5815
 21
26.7725
 31
0.0
  0
LINE
  8
0
 62
     0
 10
97.5815
 20
26.7725
 30
0.0
 11
83.5822
 21
26.7725
 31
0.0
  0
LINE
  8
0
 62
     0
 10
83.5822
 20
26.7725
 30
0.0
 11
83.5822
 21
40.7719
 31
0.0
  0
LINE
  8
0
 62
     0
 10
102.632
 20
40.7719
 30
0.0
 11
116.632
 21
40.7719
 31
0.0
  0
LINE
  8
0
 62
     0
 10
116.632
 20
40.7719
 30
0.0
 11
116.632
 21
26.7725
 31
0.0
  0
LINE
  8
0
 62
     0
 10
116.632
 20
26.7725
 30
0.0
 11
102.632
 21
26.7725
 31
0.0
  0
LINE
  8
0
 62
     0
 10
102.632
 20
26.7725
 30
0.0
 11
102.632
 21
40.7719
 31
0.0
  0
LINE
  8
0
 62
     0
 10
128.826
 20
40.7719
 30
0.0
 11
142.825
 21
40.7719
 31
0.0
  0
LINE
  8
0
 62
     0
 10
142.825
 20
40.7719
 30
0.0
 11
142.825
 21
26.7725
 31
0.0
  0
LINE
  8
0
 62
     0
 10
142.825
 20
26.7725
 30
0.0
 11
128.826
 21
26.7725
 31
0.0
  0
LINE
  8
0
 62
     0
 10
128.826
 20
26.7725
 30
0.0
 11
128.826
 21
40.7719
 31
0.0
  0
LINE
  8
0
 62
     0
 10
188.357
 20
40.7719
 30
0.0
 11
202.357
 21
40.7719
 31
0.0
  0
LINE
  8
0
 62
     0
 10
202.357
 20
40.7719
 30
0.0
 11
202.357
 21
26.7725
 31
0.0
  0
LINE
  8
0
 62
     0
 10
202.357
 20
26.7725
 30
0.0
 11
188.357
 21
26.7725
 31
0.0
  0
LINE
  8
0
 62
     0
 10
188.357
 20
26.7725
 30
0.0
 11
188.357
 21
40.7719
 31
0.0
  0
LINE
  8
0
 62
     0
 10
143.112
 20
59.8219
 30
0.0
 11
143.112
 21
55.1215
 31
0.0
  0
LINE
  8
0
 62
     0
 10
143.112
 20
55.1215
 30
0.0
 11
141.588
 21
55.1215
 31
0.0
  0
LINE
  8
0
 62
     0
 10
141.588
 20
55.1215
 30
0.0
 11
141.588
 21
58.3516
 31
0.0
  0
LINE
  8
0
 62
     0
 10
141.588
 20
58.3516
 30
0.0
 11
139.863
 21
58.3516
 31
0.0
  0
LINE
  8
0
 62
     0
 10
139.863
 20
58.3516
 30
0.0
 11
139.863
 21
59.2723
 31
0.0
  0
LINE
  8
0
 62
     0
 10
139.863
 20
59.2723
 30
0.0
 11
136.562
 21
59.2723
 31
0.0
  0
LINE
  8
0
 62
     0
 10
136.562
 20
59.2723
 30
0.0
 11
136.562
 21
58.3516
 31
0.0
  0
LINE
  8
0
 62
     0
 10
136.562
 20
58.3516
 30
0.0
 11
134.837
 21
58.3516
 31
0.0
  0
LINE
  8
0
 62
     0
 10
134.837
 20
58.3516
 30
0.0
 11
134.837
 21
55.1215
 31
0.0
  0
LINE
  8
0
 62
     0
 10
134.837
 20
55.1215
 30
0.0
 11
134.013
 21
55.1215
 31
0.0
  0
LINE
  8
0
 62
     0
 10
134.013
 20
55.1215
 30
0.0
 11
134.013
 21
52.3226
 31
0.0
  0
LINE
  8
0
 62
     0
 10
134.013
 20
52.3226
 30
0.0
 11
134.837
 21
52.3226
 31
0.0
  0
LINE
  8
0
 62
     0
 10
134.837
 20
52.3226
 30
0.0
 11
134.837
 21
46.0527
 31
0.0
  0
LINE
  8
0
 62
     0
 10
134.837
 20
46.0527
 30
0.0
 11
136.562
 21
46.0527
 31
0.0
  0
LINE
  8
0
 62
     0
 10
136.562
 20
46.0527
 30
0.0
 11
136.562
 21
45.0716
 31
0.0
  0
LINE
  8
0
 62
     0
 10
136.562
 20
45.0716
 30
0.0
 11
139.863
 21
45.0716
 31
0.0
  0
LINE
  8
0
 62
     0
 10
139.863
 20
45.0716
 30
0.0
 11
139.863
 21
46.0527
 31
0.0
  0
LINE
  8
0
 62
     0
 10
139.863
 20
46.0527
 30
0.0
 11
141.588
 21
46.0527
 31
0.0
  0
LINE
  8
0
 62
     0
 10
141.588
 20
46.0527
 30
0.0
 11
141.588
 21
50.5217
 31
0.0
  0
LINE
  8
0
 62
     0
 10
141.588
 20
50.5217
 30
0.0
 11
143.112
 21
50.5217
 31
0.0
  0
LINE
  8
0
 62
     0
 10
143.112
 20
50.5217
 30
0.0
 11
143.112
 21
45.8227
 31
0.0
  0
LINE
  8
0
 62
     0
 10
143.112
 20
45.8227
 30
0.0
 11
157.113
 21
45.8227
 31
0.0
  0
LINE
  8
0
 62
     0
 10
157.113
 20
45.8227
 30
0.0
 11
157.113
 21
50.5217
 31
0.0
  0
LINE
  8
0
 62
     0
 10
157.113
 20
50.5217
 30
0.0
 11
158.637
 21
50.5217
 31
0.0
  0
LINE
  8
0
 62
     0
 10
158.637
 20
50.5217
 30
0.0
 11
158.637
 21
46.0527
 31
0.0
  0
LINE
  8
0
 62
     0
 10
158.637
 20
46.0527
 30
0.0
 11
160.362
 21
46.0527
 31
0.0
  0
LINE
  8
0
 62
     0
 10
160.362
 20
46.0527
 30
0.0
 11
160.362
 21
45.0716
 31
0.0
  0
LINE
  8
0
 62
     0
 10
160.362
 20
45.0716
 30
0.0
 11
163.663
 21
45.0716
 31
0.0
  0
LINE
  8
0
 62
     0
 10
163.663
 20
45.0716
 30
0.0
 11
163.663
 21
46.0527
 31
0.0
  0
LINE
  8
0
 62
     0
 10
163.663
 20
46.0527
 30
0.0
 11
165.388
 21
46.0527
 31
0.0
  0
LINE
  8
0
 62
     0
 10
165.388
 20
46.0527
 30
0.0
 11
165.388
 21
52.3226
 31
0.0
  0
LINE
  8
0
 62
     0
 10
165.388
 20
52.3226
 30
0.0
 11
166.212
 21
52.3226
 31
0.0
  0
LINE
  8
0
 62
     0
 10
166.212
 20
52.3226
 30
0.0
 11
166.212
 21
55.1215
 31
0.0
  0
LINE
  8
0
 62
     0
 10
166.212
 20
55.1215
 30
0.0
 11
165.388
 21
55.1215
 31
0.0
  0
LINE
  8
0
 62
     0
 10
165.388
 20
55.1215
 30
0.0
 11
165.388
 21
58.3516
 31
0.0
  0
LINE
  8
0
 62
     0
 10
165.388
 20
58.3516
 30
0.0
 11
163.663
 21
58.3516
 31
0.0
  0
LINE
  8
0
 62
     0
 10
163.663
 20
58.3516
 30
0.0
 11
163.663
 21
59.2723
 31
0.0
  0
LINE
  8
0
 62
     0
 10
163.663
 20
59.2723
 30
0.0
 11
160.362
 21
59.2723
 31
0.0
  0
LINE
  8
0
 62
     0
 10
160.362
 20
59.2723
 30
0.0
 11
160.362
 21
58.3516
 31
0.0
  0
LINE
  8
0
 62
     0
 10
160.362
 20
58.3516
 30
0.0
 11
158.637
 21
58.3516
 31
0.0
  0
LINE
  8
0
 62
     0
 10
158.637
 20
58.3516
 30
0.0
 11
158.637
 21
55.1215
 31
0.0
  0
LINE
  8
0
 62
     0
 10
158.637
 20
55.1215
 30
0.0
 11
157.113
 21
55.1215
 31
0.0
  0
LINE
  8
0
 62
     0
 10
157.113
 20
55.1215
 30
0.0
 11
157.113
 21
59.8219
 31
0.0
  0
LINE
  8
0
 62
     0
 10
157.113
 20
59.8219
 30
0.0
 11
143.112
 21
59.8219
 31
0.0
  0
LINE
  8
0
 62
     0
 10
16.9072
 20
59.8219
 30
0.0
 11
30.9066
 21
59.8219
 31
0.0
  0
LINE
  8
0
 62
     0
 10
30.9066
 20
59.8219
 30
0.0
 11
30.9066
 21
45.8227
 31
0.0
  0
LINE
  8
0
 62
     0
 10
30.9066
 20
45.8227
 30
0.0
 11
16.9072
 21
45.8227
 31
0.0
  0
LINE
  8
0
 62
     0
 10
16.9072
 20
45.8227
 30
0.0
 11
16.9072
 21
59.8219
 31
0.0
  0
LINE
  8
0
 62
     0
 10
35.9572
 20
59.8219
 30
0.0
 11
49.9565
 21
59.8219
 31
0.0
  0
LINE
  8
0
 62
     0
 10
49.9565
 20
59.8219
 30
0.0
 11
49.9565
 21
45.8227
 31
0.0
  0
LINE
  8
0
 62
     0
 10
49.9565
 20
45.8227
 30
0.0
 11
35.9572
 21
45.8227
 31
0.0
  0
LINE
  8
0
 62
     0
 10
35.9572
 20
45.8227
 30
0.0
 11
35.9572
 21
59.8219
 31
0.0
  0
LINE
  8
0
 62
     0
 10
55.0072
 20
59.8219
 30
0.0
 11
69.0065
 21
59.8219
 31
0.0
  0
LINE
  8
0
 62
     0
 10
69.0065
 20
59.8219
 30
0.0
 11
69.0065
 21
45.8227
 31
0.0
  0
LINE
  8
0
 62
     0
 10
69.0065
 20
45.8227
 30
0.0
 11
55.0072
 21
45.8227
 31
0.0
  0
LINE
  8
0
 62
     0
 10
55.0072
 20
45.8227
 30
0.0
 11
55.0072
 21
59.8219
 31
0.0
  0
LINE
  8
0
 62
     0
 10
74.0572
 20
59.8219
 30
0.0
 11
88.0565
 21
59.8219
 31
0.0
  0
LINE
  8
0
 62
     0
 10
88.0565
 20
59.8219
 30
0.0
 11
88.0565
 21
45.8227
 31
0.0
  0
LINE
  8
0
 62
     0
 10
88.0565
 20
45.8227
 30
0.0
 11
74.0572
 21
45.8227
 31
0.0
  0
LINE
  8
0
 62
     0
 10
74.0572
 20
45.8227
 30
0.0
 11
74.0572
 21
59.8219
 31
0.0
  0
LINE
  8
0
 62
     0
 10
93.1072
 20
59.8219
 30
0.0
 11
107.107
 21
59.8219
 31
0.0
  0
LINE
  8
0
 62
     0
 10
107.107
 20
59.8219
 30
0.0
 11
107.107
 21
45.8227
 31
0.0
  0
LINE
  8
0
 62
     0
 10
107.107
 20
45.8227
 30
0.0
 11
93.1072
 21
45.8227
 31
0.0
  0
LINE
  8
0
 62
     0
 10
93.1072
 20
45.8227
 30
0.0
 11
93.1072
 21
59.8219
 31
0.0
  0
LINE
  8
0
 62
     0
 10
112.157
 20
59.8219
 30
0.0
 11
126.157
 21
59.8219
 31
0.0
  0
LINE
  8
0
 62
     0
 10
126.157
 20
59.8219
 30
0.0
 11
126.157
 21
45.8227
 31
0.0
  0
LINE
  8
0
 62
     0
 10
126.157
 20
45.8227
 30
0.0
 11
112.157
 21
45.8227
 31
0.0
  0
LINE
  8
0
 62
     0
 10
112.157
 20
45.8227
 30
0.0
 11
112.157
 21
59.8219
 31
0.0
  0
LINE
  8
0
 62
     0
 10
188.357
 20
59.8219
 30
0.0
 11
202.357
 21
59.8219
 31
0.0
  0
LINE
  8
0
 62
     0
 10
202.357
 20
59.8219
 30
0.0
 11
202.357
 21
45.8227
 31
0.0
  0
LINE
  8
0
 62
     0
 10
202.357
 20
45.8227
 30
0.0
 11
188.357
 21
45.8227
 31
0.0
  0
LINE
  8
0
 62
     0
 10
188.357
 20
45.8227
 30
0.0
 11
188.357
 21
59.8219
 31
0.0
  0
LINE
  8
0
 62
     0
 10
12.1447
 20
78.8719
 30
0.0
 11
26.1441
 21
78.8719
 31
0.0
  0
LINE
  8
0
 62
     0
 10
26.1441
 20
78.8719
 30
0.0
 11
26.1441
 21
64.8727
 31
0.0
  0
LINE
  8
0
 62
     0
 10
26.1441
 20
64.8727
 30
0.0
 11
12.1447
 21
64.8727
 31
0.0
  0
LINE
  8
0
 62
     0
 10
12.1447
 20
64.8727
 30
0.0
 11
12.1447
 21
78.8719
 31
0.0
  0
LINE
  8
0
 62
     0
 10
31.1947
 20
78.8719
 30
0.0
 11
45.194
 21
78.8719
 31
0.0
  0
LINE
  8
0
 62
     0
 10
45.194
 20
78.8719
 30
0.0
 11
45.194
 21
64.8727
 31
0.0
  0
LINE
  8
0
 62
     0
 10
45.194
 20
64.8727
 30
0.0
 11
31.1947
 21
64.8727
 31
0.0
  0
LINE
  8
0
 62
     0
 10
31.1947
 20
64.8727
 30
0.0
 11
31.1947
 21
78.8719
 31
0.0
  0
LINE
  8
0
 62
     0
 10
50.2447
 20
78.8719
 30
0.0
 11
64.244
 21
78.8719
 31
0.0
  0
LINE
  8
0
 62
     0
 10
64.244
 20
78.8719
 30
0.0
 11
64.244
 21
64.8727
 31
0.0
  0
LINE
  8
0
 62
     0
 10
64.244
 20
64.8727
 30
0.0
 11
50.2447
 21
64.8727
 31
0.0
  0
LINE
  8
0
 62
     0
 10
50.2447
 20
64.8727
 30
0.0
 11
50.2447
 21
78.8719
 31
0.0
  0
LINE
  8
0
 62
     0
 10
69.2947
 20
78.8719
 30
0.0
 11
83.294
 21
78.8719
 31
0.0
  0
LINE
  8
0
 62
     0
 10
83.294
 20
78.8719
 30
0.0
 11
83.294
 21
64.8727
 31
0.0
  0
LINE
  8
0
 62
     0
 10
83.294
 20
64.8727
 30
0.0
 11
69.2947
 21
64.8727
 31
0.0
  0
LINE
  8
0
 62
     0
 10
69.2947
 20
64.8727
 30
0.0
 11
69.2947
 21
78.8719
 31
0.0
  0
LINE
  8
0
 62
     0
 10
88.3447
 20
78.8719
 30
0.0
 11
102.344
 21
78.8719
 31
0.0
  0
LINE
  8
0
 62
     0
 10
102.344
 20
78.8719
 30
0.0
 11
102.344
 21
64.8727
 31
0.0
  0
LINE
  8
0
 62
     0
 10
102.344
 20
64.8727
 30
0.0
 11
88.3447
 21
64.8727
 31
0.0
  0
LINE
  8
0
 62
     0
 10
88.3447
 20
64.8727
 30
0.0
 11
88.3447
 21
78.8719
 31
0.0
  0
LINE
  8
0
 62
     0
 10
107.395
 20
78.8719
 30
0.0
 11
121.394
 21
78.8719
 31
0.0
  0
LINE
  8
0
 62
     0
 10
121.394
 20
78.8719
 30
0.0
 11
121.394
 21
64.8727
 31
0.0
  0
LINE
  8
0
 62
     0
 10
121.394
 20
64.8727
 30
0.0
 11
107.395
 21
64.8727
 31
0.0
  0
LINE
  8
0
 62
     0
 10
107.395
 20
64.8727
 30
0.0
 11
107.395
 21
78.8719
 31
0.0
  0
LINE
  8
0
 62
     0
 10
126.445
 20
78.8719
 30
0.0
 11
140.444
 21
78.8719
 31
0.0
  0
LINE
  8
0
 62
     0
 10
140.444
 20
78.8719
 30
0.0
 11
140.444
 21
64.8727
 31
0.0
  0
LINE
  8
0
 62
     0
 10
140.444
 20
64.8727
 30
0.0
 11
126.445
 21
64.8727
 31
0.0
  0
LINE
  8
0
 62
     0
 10
126.445
 20
64.8727
 30
0.0
 11
126.445
 21
78.8719
 31
0.0
  0
LINE
  8
0
 62
     0
 10
150.257
 20
78.8719
 30
0.0
 11
164.257
 21
78.8719
 31
0.0
  0
LINE
  8
0
 62
     0
 10
164.257
 20
78.8719
 30
0.0
 11
164.257
 21
64.8727
 31
0.0
  0
LINE
  8
0
 62
     0
 10
164.257
 20
64.8727
 30
0.0
 11
150.257
 21
64.8727
 31
0.0
  0
LINE
  8
0
 62
     0
 10
150.257
 20
64.8727
 30
0.0
 11
150.257
 21
78.8719
 31
0.0
  0
LINE
  8
0
 62
     0
 10
188.357
 20
78.8719
 30
0.0
 11
202.357
 21
78.8719
 31
0.0
  0
LINE
  8
0
 62
     0
 10
202.357
 20
78.8719
 30
0.0
 11
202.357
 21
64.8727
 31
0.0
  0
LINE
  8
0
 62
     0
 10
202.357
 20
64.8727
 30
0.0
 11
188.357
 21
64.8727
 31
0.0
  0
LINE
  8
0
 62
     0
 10
188.357
 20
64.8727
 30
0.0
 11
188.357
 21
78.8719
 31
0.0
  0
LINE
  8
0
 62
     0
 10
145.493
 20
97.9219
 30
0.0
 11
145.493
 21
93.2215
 31
0.0
  0
LINE
  8
0
 62
     0
 10
145.493
 20
93.2215
 30
0.0
 11
143.969
 21
93.2215
 31
0.0
  0
LINE
  8
0
 62
     0
 10
143.969
 20
93.2215
 30
0.0
 11
143.969
 21
96.4516
 31
0.0
  0
LINE
  8
0
 62
     0
 10
143.969
 20
96.4516
 30
0.0
 11
142.244
 21
96.4516
 31
0.0
  0
LINE
  8
0
 62
     0
 10
142.244
 20
96.4516
 30
0.0
 11
142.244
 21
97.3723
 31
0.0
  0
LINE
  8
0
 62
     0
 10
142.244
 20
97.3723
 30
0.0
 11
138.943
 21
97.3723
 31
0.0
  0
LINE
  8
0
 62
     0
 10
138.943
 20
97.3723
 30
0.0
 11
138.943
 21
96.4516
 31
0.0
  0
LINE
  8
0
 62
     0
 10
138.943
 20
96.4516
 30
0.0
 11
137.218
 21
96.4516
 31
0.0
  0
LINE
  8
0
 62
     0
 10
137.218
 20
96.4516
 30
0.0
 11
137.218
 21
93.2215
 31
0.0
  0
LINE
  8
0
 62
     0
 10
137.218
 20
93.2215
 30
0.0
 11
136.394
 21
93.2215
 31
0.0
  0
LINE
  8
0
 62
     0
 10
136.394
 20
93.2215
 30
0.0
 11
136.394
 21
90.4226
 31
0.0
  0
LINE
  8
0
 62
     0
 10
136.394
 20
90.4226
 30
0.0
 11
137.218
 21
90.4226
 31
0.0
  0
LINE
  8
0
 62
     0
 10
137.218
 20
90.4226
 30
0.0
 11
137.218
 21
84.1527
 31
0.0
  0
LINE
  8
0
 62
     0
 10
137.218
 20
84.1527
 30
0.0
 11
138.943
 21
84.1527
 31
0.0
  0
LINE
  8
0
 62
     0
 10
138.943
 20
84.1527
 30
0.0
 11
138.943
 21
83.1716
 31
0.0
  0
LINE
  8
0
 62
     0
 10
138.943
 20
83.1716
 30
0.0
 11
142.244
 21
83.1716
 31
0.0
  0
LINE
  8
0
 62
     0
 10
142.244
 20
83.1716
 30
0.0
 11
142.244
 21
84.1527
 31
0.0
  0
LINE
  8
0
 62
     0
 10
142.244
 20
84.1527
 30
0.0
 11
143.969
 21
84.1527
 31
0.0
  0
LINE
  8
0
 62
     0
 10
143.969
 20
84.1527
 30
0.0
 11
143.969
 21
88.6217
 31
0.0
  0
LINE
  8
0
 62
     0
 10
143.969
 20
88.6217
 30
0.0
 11
145.493
 21
88.6217
 31
0.0
  0
LINE
  8
0
 62
     0
 10
145.493
 20
88.6217
 30
0.0
 11
145.493
 21
83.9227
 31
0.0
  0
LINE
  8
0
 62
     0
 10
145.493
 20
83.9227
 30
0.0
 11
159.494
 21
83.9227
 31
0.0
  0
LINE
  8
0
 62
     0
 10
159.494
 20
83.9227
 30
0.0
 11
159.494
 21
88.6217
 31
0.0
  0
LINE
  8
0
 62
     0
 10
159.494
 20
88.6217
 30
0.0
 11
161.018
 21
88.6217
 31
0.0
  0
LINE
  8
0
 62
     0
 10
161.018
 20
88.6217
 30
0.0
 11
161.018
 21
84.1527
 31
0.0
  0
LINE
  8
0
 62
     0
 10
161.018
 20
84.1527
 30
0.0
 11
162.743
 21
84.1527
 31
0.0
  0
LINE
  8
0
 62
     0
 10
162.743
 20
84.1527
 30
0.0
 11
162.743
 21
83.1716
 31
0.0
  0
LINE
  8
0
 62
     0
 10
162.743
 20
83.1716
 30
0.0
 11
166.044
 21
83.1716
 31
0.0
  0
LINE
  8
0
 62
     0
 10
166.044
 20
83.1716
 30
0.0
 11
166.044
 21
84.1527
 31
0.0
  0
LINE
  8
0
 62
     0
 10
166.044
 20
84.1527
 30
0.0
 11
167.768
 21
84.1527
 31
0.0
  0
LINE
  8
0
 62
     0
 10
167.768
 20
84.1527
 30
0.0
 11
167.768
 21
90.4226
 31
0.0
  0
LINE
  8
0
 62
     0
 10
167.768
 20
90.4226
 30
0.0
 11
168.593
 21
90.4226
 31
0.0
  0
LINE
  8
0
 62
     0
 10
168.593
 20
90.4226
 30
0.0
 11
168.593
 21
93.2215
 31
0.0
  0
LINE
  8
0
 62
     0
 10
168.593
 20
93.2215
 30
0.0
 11
167.768
 21
93.2215
 31
0.0
  0
LINE
  8
0
 62
     0
 10
167.768
 20
93.2215
 30
0.0
 11
167.768
 21
96.4516
 31
0.0
  0
LINE
  8
0
 62
     0
 10
167.768
 20
96.4516
 30
0.0
 11
166.044
 21
96.4516
 31
0.0
  0
LINE
  8
0
 62
     0
 10
166.044
 20
96.4516
 30
0.0
 11
166.044
 21
97.3723
 31
0.0
  0
LINE
  8
0
 62
     0
 10
166.044
 20
97.3723
 30
0.0
 11
162.743
 21
97.3723
 31
0.0
  0
LINE
  8
0
 62
     0
 10
162.743
 20
97.3723
 30
0.0
 11
162.743
 21
96.4516
 31
0.0
  0
LINE
  8
0
 62
     0
 10
162.743
 20
96.4516
 30
0.0
 11
161.018
 21
96.4516
 31
0.0
  0
LINE
  8
0
 62
     0
 10
161.018
 20
96.4516
 30
0.0
 11
161.018
 21
93.2215
 31
0.0
  0
LINE
  8
0
 62
     0
 10
161.018
 20
93.2215
 30
0.0
 11
159.494
 21
93.2215
 31
0.0
  0
LINE
  8
0
 62
     0
 10
159.494
 20
93.2215
 30
0.0
 11
159.494
 21
97.9219
 31
0.0
  0
LINE
  8
0
 62
     0
 10
159.494
 20
97.9219
 30
0.0
 11
145.493
 21
97.9219
 31
0.0
  0
LINE
  8
0
 62
     0
 10
2.61965
 20
97.9219
 30
0.0
 11
16.6192
 21
97.9219
 31
0.0
  0
LINE
  8
0
 62
     0
 10
16.6192
 20
97.9219
 30
0.0
 11
16.6192
 21
83.9227
 31
0.0
  0
LINE
  8
0
 62
     0
 10
16.6192
 20
83.9227
 30
0.0
 11
2.61965
 21
83.9227
 31
0.0
  0
LINE
  8
0
 62
     0
 10
2.61965
 20
83.9227
 30
0.0
 11
2.61965
 21
97.9219
 31
0.0
  0
LINE
  8
0
 62
     0
 10
21.6697
 20
97.9219
 30
0.0
 11
35.669
 21
97.9219
 31
0.0
  0
LINE
  8
0
 62
     0
 10
35.669
 20
97.9219
 30
0.0
 11
35.669
 21
83.9227
 31
0.0
  0
LINE
  8
0
 62
     0
 10
35.669
 20
83.9227
 30
0.0
 11
21.6697
 21
83.9227
 31
0.0
  0
LINE
  8
0
 62
     0
 10
21.6697
 20
83.9227
 30
0.0
 11
21.6697
 21
97.9219
 31
0.0
  0
LINE
  8
0
 62
     0
 10
40.7197
 20
97.9219
 30
0.0
 11
54.719
 21
97.9219
 31
0.0
  0
LINE
  8
0
 62
     0
 10
54.719
 20
97.9219
 30
0.0
 11
54.719
 21
83.9227
 31
0.0
  0
LINE
  8
0
 62
     0
 10
54.719
 20
83.9227
 30
0.0
 11
40.7197
 21
83.9227
 31
0.0
  0
LINE
  8
0
 62
     0
 10
40.7197
 20
83.9227
 30
0.0
 11
40.7197
 21
97.9219
 31
0.0
  0
LINE
  8
0
 62
     0
 10
59.7697
 20
97.9219
 30
0.0
 11
73.769
 21
97.9219
 31
0.0
  0
LINE
  8
0
 62
     0
 10
73.769
 20
97.9219
 30
0.0
 11
73.769
 21
83.9227
 31
0.0
  0
LINE
  8
0
 62
     0
 10
73.769
 20
83.9227
 30
0.0
 11
59.7697
 21
83.9227
 31
0.0
  0
LINE
  8
0
 62
     0
 10
59.7697
 20
83.9227
 30
0.0
 11
59.7697
 21
97.9219
 31
0.0
  0
LINE
  8
0
 62
     0
 10
78.8197
 20
97.9219
 30
0.0
 11
92.819
 21
97.9219
 31
0.0
  0
LINE
  8
0
 62
     0
 10
92.819
 20
97.9219
 30
0.0
 11
92.819
 21
83.9227
 31
0.0
  0
LINE
  8
0
 62
     0
 10
92.819
 20
83.9227
 30
0.0
 11
78.8197
 21
83.9227
 31
0.0
  0
LINE
  8
0
 62
     0
 10
78.8197
 20
83.9227
 30
0.0
 11
78.8197
 21
97.9219
 31
0.0
  0
LINE
  8
0
 62
     0
 10
97.8683
 20
97.9219
 30
0.0
 11
111.869
 21
97.9219
 31
0.0
  0
LINE
  8
0
 62
     0
 10
111.869
 20
97.9219
 30
0.0
 11
111.869
 21
83.9227
 31
0.0
  0
LINE
  8
0
 62
     0
 10
111.869
 20
83.9227
 30
0.0
 11
97.8683
 21
83.9227
 31
0.0
  0
LINE
  8
0
 62
     0
 10
97.8683
 20
83.9227
 30
0.0
 11
97.8683
 21
97.9219
 31
0.0
  0
LINE
  8
0
 62
     0
 10
116.918
 20
97.9219
 30
0.0
 11
130.919
 21
97.9219
 31
0.0
  0
LINE
  8
0
 62
     0
 10
130.919
 20
97.9219
 30
0.0
 11
130.919
 21
83.9227
 31
0.0
  0
LINE
  8
0
 62
     0
 10
130.919
 20
83.9227
 30
0.0
 11
116.918
 21
83.9227
 31
0.0
  0
LINE
  8
0
 62
     0
 10
116.918
 20
83.9227
 30
0.0
 11
116.918
 21
97.9219
 31
0.0
  0
LINE
  8
0
 62
     0
 10
188.357
 20
97.9219
 30
0.0
 11
202.357
 21
97.9219
 31
0.0
  0
LINE
  8
0
 62
     0
 10
202.357
 20
97.9219
 30
0.0
 11
202.357
 21
83.9227
 31
0.0
  0
LINE
  8
0
 62
     0
 10
202.357
 20
83.9227
 30
0.0
 11
188.357
 21
83.9227
 31
0.0
  0
LINE
  8
0
 62
     0
 10
188.357
 20
83.9227
 30
0.0
 11
188.357
 21
97.9219
 31
0.0
  0
LINE
  8
0
 62
     0
 10
7.38216
 20
126.497
 30
0.0
 11
21.3817
 21
126.497
 31
0.0
  0
LINE
  8
0
 62
     0
 10
21.3817
 20
126.497
 30
0.0
 11
21.3817
 21
112.498
 31
0.0
  0
LINE
  8
0
 62
     0
 10
21.3817
 20
112.498
 30
0.0
 11
7.38216
 21
112.498
 31
0.0
  0
LINE
  8
0
 62
     0
 10
7.38216
 20
112.498
 30
0.0
 11
7.38216
 21
126.497
 31
0.0
  0
LINE
  8
0
 62
     0
 10
26.4322
 20
126.497
 30
0.0
 11
40.4315
 21
126.497
 31
0.0
  0
LINE
  8
0
 62
     0
 10
40.4315
 20
126.497
 30
0.0
 11
40.4315
 21
112.498
 31
0.0
  0
LINE
  8
0
 62
     0
 10
40.4315
 20
112.498
 30
0.0
 11
26.4322
 21
112.498
 31
0.0
  0
LINE
  8
0
 62
     0
 10
26.4322
 20
112.498
 30
0.0
 11
26.4322
 21
126.497
 31
0.0
  0
LINE
  8
0
 62
     0
 10
45.4822
 20
126.497
 30
0.0
 11
59.4815
 21
126.497
 31
0.0
  0
LINE
  8
0
 62
     0
 10
59.4815
 20
126.497
 30
0.0
 11
59.4815
 21
112.498
 31
0.0
  0
LINE
  8
0
 62
     0
 10
59.4815
 20
112.498
 30
0.0
 11
45.4822
 21
112.498
 31
0.0
  0
LINE
  8
0
 62
     0
 10
45.4822
 20
112.498
 30
0.0
 11
45.4822
 21
126.497
 31
0.0
  0
LINE
  8
0
 62
     0
 10
64.5322
 20
126.497
 30
0.0
 11
78.5315
 21
126.497
 31
0.0
  0
LINE
  8
0
 62
     0
 10
78.5315
 20
126.497
 30
0.0
 11
78.5315
 21
112.498
 31
0.0
  0
LINE
  8
0
 62
     0
 10
78.5315
 20
112.498
 30
0.0
 11
64.5322
 21
112.498
 31
0.0
  0
LINE
  8
0
 62
     0
 10
64.5322
 20
112.498
 30
0.0
 11
64.5322
 21
126.497
 31
0.0
  0
LINE
  8
0
 62
     0
 10
83.5822
 20
126.497
 30
0.0
 11
97.5815
 21
126.497
 31
0.0
  0
LINE
  8
0
 62
     0
 10
97.5815
 20
126.497
 30
0.0
 11
97.5815
 21
112.498
 31
0.0
  0
LINE
  8
0
 62
     0
 10
97.5815
 20
112.498
 30
0.0
 11
83.5822
 21
112.498
 31
0.0
  0
LINE
  8
0
 62
     0
 10
83.5822
 20
112.498
 30
0.0
 11
83.5822
 21
126.497
 31
0.0
  0
LINE
  8
0
 62
     0
 10
102.632
 20
126.497
 30
0.0
 11
116.632
 21
126.497
 31
0.0
  0
LINE
  8
0
 62
     0
 10
116.632
 20
126.497
 30
0.0
 11
116.632
 21
112.498
 31
0.0
  0
LINE
  8
0
 62
     0
 10
116.632
 20
112.498
 30
0.0
 11
102.632
 21
112.498
 31
0.0
  0
LINE
  8
0
 62
     0
 10
102.632
 20
112.498
 30
0.0
 11
102.632
 21
126.497
 31
0.0
  0
LINE
  8
0
 62
     0
 10
121.682
 20
126.497
 30
0.0
 11
135.682
 21
126.497
 31
0.0
  0
LINE
  8
0
 62
     0
 10
135.682
 20
126.497
 30
0.0
 11
135.682
 21
112.498
 31
0.0
  0
LINE
  8
0
 62
     0
 10
135.682
 20
112.498
 30
0.0
 11
121.682
 21
112.498
 31
0.0
  0
LINE
  8
0
 62
     0
 10
121.682
 20
112.498
 30
0.0
 11
121.682
 21
126.497
 31
0.0
  0
LINE
  8
0
 62
     0
 10
145.495
 20
126.497
 30
0.0
 11
159.494
 21
126.497
 31
0.0
  0
LINE
  8
0
 62
     0
 10
159.494
 20
126.497
 30
0.0
 11
159.494
 21
112.498
 31
0.0
  0
LINE
  8
0
 62
     0
 10
159.494
 20
112.498
 30
0.0
 11
145.495
 21
112.498
 31
0.0
  0
LINE
  8
0
 62
     0
 10
145.495
 20
112.498
 30
0.0
 11
145.495
 21
126.497
 31
0.0
  0
LINE
  8
0
 62
     0
 10
164.545
 20
126.497
 30
0.0
 11
178.544
 21
126.497
 31
0.0
  0
LINE
  8
0
 62
     0
 10
178.544
 20
126.497
 30
0.0
 11
178.544
 21
112.498
 31
0.0
  0
LINE
  8
0
 62
     0
 10
178.544
 20
112.498
 30
0.0
 11
164.545
 21
112.498
 31
0.0
  0
LINE
  8
0
 62
     0
 10
164.545
 20
112.498
 30
0.0
 11
164.545
 21
126.497
 31
0.0
  0
LINE
  8
0
 62
     0
 10
185.976
 20
126.497
 30
0.0
 11
199.975
 21
126.497
 31
0.0
  0
LINE
  8
0
 62
     0
 10
199.975
 20
126.497
 30
0.0
 11
199.975
 21
112.498
 31
0.0
  0
LINE
  8
0
 62
     0
 10
199.975
 20
112.498
 30
0.0
 11
185.976
 21
112.498
 31
0.0
  0
LINE
  8
0
 62
     0
 10
185.976
 20
112.498
 30
0.0
 11
185.976
 21
126.497
 31
0.0
  0
ENDSEC
  0
EOF
